<?xml version="1.0" encoding="UTF-8" standalone="no"?>
<!-- Created with Inkscape (http://www.inkscape.org/) -->

<svg
   xmlns:dc="http://purl.org/dc/elements/1.1/"
   xmlns:cc="http://creativecommons.org/ns#"
   xmlns:rdf="http://www.w3.org/1999/02/22-rdf-syntax-ns#"
   xmlns:svg="http://www.w3.org/2000/svg"
   xmlns="http://www.w3.org/2000/svg"
   xmlns:sodipodi="http://sodipodi.sourceforge.net/DTD/sodipodi-0.dtd"
   xmlns:inkscape="http://www.inkscape.org/namespaces/inkscape"
   id="SVGRoot"
   version="1.1"
   viewBox="0 0 200 200"
   height="200px"
   width="200px"
   inkscape:version="0.92.4 (5da689c313, 2019-01-14)"
   sodipodi:docname="copper.svg">
  <defs
     id="defs2652" />
  <sodipodi:namedview
     id="base"
     pagecolor="#ffffff"
     bordercolor="#666666"
     borderopacity="1.0"
     inkscape:pageopacity="0.0"
     inkscape:pageshadow="2"
     inkscape:zoom="1.28"
     inkscape:cx="66.402386"
     inkscape:cy="86.875789"
     inkscape:document-units="px"
     inkscape:current-layer="layer1"
     showgrid="false"
     inkscape:window-width="1280"
     inkscape:window-height="692"
     inkscape:window-x="0"
     inkscape:window-y="0"
     inkscape:window-maximized="1"
     inkscape:grid-bbox="true" />
  <metadata
     id="metadata2655">
    <rdf:RDF>
      <cc:Work
         rdf:about="">
        <dc:format>image/svg+xml</dc:format>
        <dc:type
           rdf:resource="http://purl.org/dc/dcmitype/StillImage" />
        <dc:title></dc:title>
      </cc:Work>
    </rdf:RDF>
  </metadata>
  <g
     inkscape:label="Layer 1"
     inkscape:groupmode="layer"
     id="layer1">
    <path
       style="opacity:1;fill:#6d4c41;fill-opacity:1;stroke:#9c9ca8;stroke-opacity:1"
       d="m 20.5,9.5 h 160 c 5.54,0 10,4.46 10,10 v 160 c 0,5.54 -4.46,10 -10,10 h -160 c -5.54,0 -10,-4.46 -10,-10 v -160 c 0,-5.54 4.46,-10 10,-10 z"
       id="rect3222" />
    <g
       aria-label="Cu"
       transform="matrix(1.9950335,0,0,1.8666528,-102.97164,-64.44277)"
       style="font-style:normal;font-variant:normal;font-weight:bold;font-stretch:normal;font-size:40.00017166px;line-height:1.25;font-family:'JetBrains Mono';-inkscape-font-specification:'JetBrains Mono, Bold';font-variant-ligatures:normal;font-variant-caps:normal;font-variant-numeric:normal;font-feature-settings:normal;text-align:center;letter-spacing:0px;word-spacing:0px;writing-mode:lr-tb;text-anchor:middle;fill:#ffffff;fill-opacity:0.94117647;stroke:none"
       id="flowRoot3224">
      <path
         d="m 92.472449,98.809247 q -2.840012,0 -4.920021,-1.040005 -2.080009,-1.080004 -3.240014,-3.000013 -1.120005,-1.960008 -1.120005,-4.600019 V 77.449155 q 0,-2.640011 1.120005,-4.56002 1.160005,-1.960008 3.240014,-3.000012 2.080009,-1.080005 4.920021,-1.080005 2.800012,0 4.880021,1.080005 2.080009,1.040004 3.24001,3.000012 1.16001,1.920009 1.16001,4.56002 h -5.040023 q 0,-2.040009 -1.120004,-3.120013 -1.080005,-1.120005 -3.120014,-1.120005 -2.040008,0 -3.160013,1.080005 -1.120005,1.080004 -1.120005,3.120013 V 90.16921 q 0,2.040008 1.120005,3.160013 1.120005,1.080005 3.160013,1.080005 2.040009,0 3.120014,-1.080005 1.120004,-1.120005 1.120004,-3.160013 h 5.040023 q 0,2.640011 -1.16001,4.600019 -1.160001,1.920009 -3.24001,3.000013 -2.080009,1.040005 -4.880021,1.040005 z"
         style=""
         id="path3285" />
      <path
         d="m 116.29693,98.809247 q -4.20002,0 -6.60003,-2.32001 -2.40001,-2.36001 -2.40001,-6.400028 V 76.409151 h 5.00002 v 13.640058 q 0,2.120009 1.04,3.280014 1.04001,1.120005 2.96002,1.120005 1.88,0 2.92001,-1.120005 1.08,-1.160005 1.08,-3.280014 V 76.409151 h 5.00003 v 13.680058 q 0,4.040018 -2.44002,6.400028 -2.44001,2.32001 -6.56002,2.32001 z"
         style=""
         id="path3287" />
    </g>
    <g
       aria-label="29"
       transform="matrix(0.7051461,0,0,0.74324324,44.582891,-13.399493)"
       style="font-style:normal;font-variant:normal;font-weight:normal;font-stretch:normal;font-size:40px;line-height:1.25;font-family:'JetBrains Mono';-inkscape-font-specification:'JetBrains Mono, Normal';font-variant-ligatures:normal;font-variant-caps:normal;font-variant-numeric:normal;font-feature-settings:normal;text-align:center;letter-spacing:0px;word-spacing:0px;writing-mode:lr-tb;text-anchor:middle;opacity:0.95;fill:#ffffff;fill-opacity:1;stroke:none"
       id="flowRoot3232">
      <path
         d="m 153.13312,71.846591 v -3.56 l 8.92,-9.6 q 2.28,-2.44 3.32001,-4.32 1.03999,-1.92 1.03999,-3.68 0,-2.44 -1.36,-3.84 -1.32,-1.4 -3.64,-1.4 -2.56,0 -4.04,1.44 -1.44,1.44 -1.44,3.96 h -3.6 q 0.12,-3.96 2.56,-6.28 2.48,-2.32 6.52,-2.32 3.96001,0 6.28,2.28 2.32,2.24 2.32,6.12 0,2.48 -1.32,4.92 -1.31999,2.44 -4.32,5.56 l -7.12,7.44 h 13.24 v 3.28 z"
         style=""
         id="path3280" />
      <path
         d="m 181.4375,71.846591 7.84,-13.48 -0.16,-0.12 q -0.72,1.08 -2.04,1.72 -1.32,0.64 -3.04,0.64 -2.4,0 -4.2,-1.12 -1.8,-1.12 -2.84,-3.12 -1,-2 -1,-4.64 0,-2.84 1.16,-4.96 1.2,-2.16 3.32,-3.32 2.12,-1.2 4.92,-1.2 2.84,0 4.96,1.2 2.16,1.16 3.32,3.24 1.2,2.08 1.2,4.88 0,1.92 -0.72,3.96 -0.72,2 -1.96,4.2 l -6.76,12.12 z m 4,-14 q 2.6,0 4.2,-1.68 1.64,-1.72 1.64,-4.52 0,-2.8 -1.64,-4.48 -1.6,-1.72 -4.2,-1.72 -2.6,0 -4.24,1.72 -1.6,1.68 -1.6,4.48 0,2.8 1.6,4.52 1.64,1.68 4.24,1.68 z"
         style=""
         id="path3282" />
    </g>
    <g
       aria-label="Copper"
       transform="matrix(0.58071219,0,0,0.54347826,-5.0992633,87.786629)"
       style="font-style:normal;font-variant:normal;font-weight:normal;font-stretch:normal;font-size:40.00093842px;line-height:1.25;font-family:'JetBrains Mono NL';-inkscape-font-specification:'JetBrains Mono NL, Normal';font-variant-ligatures:normal;font-variant-caps:normal;font-variant-numeric:normal;font-feature-settings:normal;text-align:center;letter-spacing:0px;word-spacing:0px;writing-mode:lr-tb;text-anchor:middle;fill:#ffffff;fill-opacity:1;stroke:none"
       id="flowRoot3240">
      <path
         d="m 51.861722,162.87244 q -4.000094,0 -6.320148,-2.24005 -2.320054,-2.24005 -2.320054,-6.16014 v -13.20031 q 0,-3.9201 2.320054,-6.16015 2.320054,-2.24005 6.320148,-2.24005 3.920092,0 6.240147,2.28005 2.320054,2.24005 2.320054,6.12015 h -3.600084 q 0,-2.48006 -1.320031,-3.80009 -1.28003,-1.36004 -3.640086,-1.36004 -2.360055,0 -3.720087,1.32004 -1.320031,1.32003 -1.320031,3.80009 v 13.24031 q 0,2.48005 1.320031,3.84009 1.360032,1.32003 3.720087,1.32003 2.360056,0 3.640086,-1.32003 1.320031,-1.36004 1.320031,-3.84009 h 3.600084 q 0,3.88009 -2.320054,6.16014 -2.320055,2.24005 -6.240147,2.24005 z"
         style=""
         id="path3267" />
      <path
         d="m 75.686656,162.79244 q -4.000094,0 -6.320148,-2.24005 -2.280054,-2.28006 -2.280054,-6.16015 v -5.84013 q 0,-3.9201 2.280054,-6.16015 2.320054,-2.24005 6.320148,-2.24005 4.000094,0 6.280147,2.24005 2.320055,2.24005 2.320055,6.12015 v 5.88013 q 0,3.88009 -2.320055,6.16015 -2.280053,2.24005 -6.280147,2.24005 z m 0,-3.20007 q 2.360056,0 3.680086,-1.32004 1.320031,-1.32003 1.320031,-3.88009 v -5.84013 q 0,-2.56006 -1.320031,-3.88009 -1.32003,-1.32004 -3.680086,-1.32004 -2.320054,0 -3.680086,1.32004 -1.320031,1.32003 -1.320031,3.88009 v 5.84013 q 0,2.56006 1.320031,3.88009 1.360032,1.32004 3.680086,1.32004 z"
         style=""
         id="path3269" />
      <path
         d="m 91.351399,169.6726 v -29.20068 h 3.600084 v 4.2001 h 0.04 q 0.280007,-2.16005 1.880044,-3.36008 1.640039,-1.24003 4.120092,-1.24003 3.32008,0 5.28013,2.20005 2.00005,2.16005 2.00005,5.96014 v 6.44015 q 0,3.80009 -2.00005,6.00014 -1.96005,2.20005 -5.28013,2.20005 -2.480053,0 -4.080091,-1.24003 -1.600037,-1.24003 -1.920045,-3.36008 h -0.120003 l 0.08,5.00012 v 6.40015 z m 8.440198,-9.92023 q 2.280053,0 3.560083,-1.36003 1.32003,-1.36003 1.32003,-3.92009 v -6.00015 q 0,-2.56006 -1.32003,-3.92009 -1.28003,-1.36003 -3.560083,-1.36003 -2.200052,0 -3.520083,1.40003 -1.320031,1.40004 -1.320031,3.88009 v 6.00015 q 0,2.48005 1.320031,3.88009 1.320031,1.40003 3.520083,1.40003 z"
         style=""
         id="path3271" />
      <path
         d="m 115.33633,169.6726 v -29.20068 h 3.60009 v 4.2001 h 0.04 q 0.28001,-2.16005 1.88004,-3.36008 1.64004,-1.24003 4.1201,-1.24003 3.32008,0 5.28012,2.20005 2.00005,2.16005 2.00005,5.96014 v 6.44015 q 0,3.80009 -2.00005,6.00014 -1.96004,2.20005 -5.28012,2.20005 -2.48006,0 -4.0801,-1.24003 -1.60003,-1.24003 -1.92004,-3.36008 h -0.12 l 0.08,5.00012 v 6.40015 z m 8.4402,-9.92023 q 2.28006,0 3.56009,-1.36003 1.32003,-1.36003 1.32003,-3.92009 v -6.00015 q 0,-2.56006 -1.32003,-3.92009 -1.28003,-1.36003 -3.56009,-1.36003 -2.20005,0 -3.52008,1.40003 -1.32003,1.40004 -1.32003,3.88009 v 6.00015 q 0,2.48005 1.32003,3.88009 1.32003,1.40003 3.52008,1.40003 z"
         style=""
         id="path3273" />
      <path
         d="m 147.64147,162.87244 q -2.60006,0 -4.56011,-1.04002 -1.92004,-1.04003 -3.00007,-2.92007 -1.04002,-1.92005 -1.04002,-4.4401 v -6.00015 q 0,-2.56006 1.04002,-4.4401 1.08003,-1.88004 3.00007,-2.92007 1.96005,-1.04002 4.56011,-1.04002 2.60006,0 4.52011,1.04002 1.96004,1.04003 3.00007,2.92007 1.08002,1.88004 1.08002,4.4401 v 3.8801 h -13.68032 v 2.12005 q 0,2.60006 1.32003,4.00009 1.32003,1.36003 3.76009,1.36003 2.08005,0 3.36008,-0.72002 1.28003,-0.76001 1.56003,-2.24005 h 3.60009 q -0.36001,2.76007 -2.72006,4.40011 -2.32006,1.60003 -5.80014,1.60003 z m -5.08012,-13.24031 h 10.16024 v -1.16003 q 0,-2.60006 -1.32003,-4.00009 -1.28003,-1.40003 -3.76009,-1.40003 -2.44006,0 -3.76009,1.40003 -1.32003,1.40003 -1.32003,4.00009 z"
         style=""
         id="path3275" />
      <path
         d="m 164.06623,162.47243 v -22.00051 h 3.52008 v 3.92009 q 1.08003,-4.3201 5.80014,-4.3201 3.48008,0 5.52013,2.20005 2.08005,2.16005 2.08005,5.88014 v 1.32003 h -3.60009 v -1.00003 q 0,-2.60006 -1.28003,-3.96009 -1.24003,-1.40003 -3.56008,-1.40003 -2.28005,0 -3.60008,1.40003 -1.28003,1.40003 -1.28003,3.96009 v 14.00033 z"
         style=""
         id="path3277" />
    </g>
  </g>
</svg>
