<?xml version="1.0" standalone="no"?><!DOCTYPE svg PUBLIC "-//W3C//DTD SVG 1.1//EN" "http://www.w3.org/Graphics/SVG/1.1/DTD/svg11.dtd"><svg t="1626011894464" class="icon" viewBox="0 0 1024 1024" version="1.1" xmlns="http://www.w3.org/2000/svg" p-id="2480" xmlns:xlink="http://www.w3.org/1999/xlink" width="200" height="200"><defs><style type="text/css"></style></defs><path d="M327.36 130.688C311.978667 135.424 298.666667 153.984 298.666667 170.666667c0 17.152 13.312 35.285333 29.418666 40.064 7.658667 2.282667 38.784 2.602667 248.064 2.602666h239.338667l1.002667 6.4c0.554667 3.52 7.530667 59.008 15.488 123.306667 7.957333 64.298667 14.848 118.997333 15.296 121.536l0.832 4.629333-229.930667 0.576c-255.722667 0.618667-239.466667-0.085333-288.746667 12.522667C196.693333 516.309333 89.642667 623.36 55.637333 756.096a394.602667 394.602667 0 0 0-12.309333 79.36c-1.472 26.624 1.024 36.373333 12.245333 47.594667C69.717333 897.194667 27.925333 896 512 896c381.034667 0 432.192-0.298667 439.914667-2.602667 12.352-3.669333 23.338667-14.954667 27.093333-27.818666l2.837333-9.685334-43.157333-345.6c-23.744-190.08-44.224-349.205333-45.525333-353.6-3.264-11.114667-15.04-22.677333-26.581334-26.090666-12.821333-3.818667-526.826667-3.712-539.221333 0.085333M859.157333 561.066667c0.554667 3.52 7.530667 59.008 15.488 123.306666 7.957333 64.298667 14.848 119.018667 15.317334 121.6l0.832 4.693334H511.104C170.133333 810.666667 131.413333 810.389333 131.413333 808.042667c0-13.76 14.933333-61.632 26.730667-85.76 44.416-90.688 133.994667-154.218667 233.834667-165.824 6.4-0.725333 113.92-1.450667 238.912-1.557334L858.154667 554.666667l1.002666 6.4m-507.605333 80.469333c-12.672 4.053333-23.274667 13.525333-28.138667 25.194667-3.285333 7.850667-3.285333 24.021333 0 31.872 3.52 8.469333 11.989333 17.685333 20.309334 22.144 6.506667 3.477333 9.301333 3.733333 40.277333 3.733333s33.770667-0.256 40.277333-3.733333A42.24 42.24 0 0 0 447.146667 682.666667a42.24 42.24 0 0 0-22.869334-38.08c-6.357333-3.392-9.770667-3.754667-37.717333-4.074667-16.896-0.192-32.64 0.256-35.008 1.024m170.666667 0c-12.672 4.053333-23.274667 13.525333-28.138667 25.194667-1.408 3.349333-2.56 10.538667-2.56 15.936a42.24 42.24 0 0 0 22.869333 38.08c6.506667 3.477333 9.301333 3.733333 40.277334 3.733333s33.770667-0.256 40.277333-3.733333A42.24 42.24 0 0 0 617.813333 682.666667a42.24 42.24 0 0 0-22.869333-38.08c-6.357333-3.392-9.770667-3.754667-37.717333-4.074667-16.896-0.192-32.64 0.256-35.008 1.024m170.666666 0c-12.672 4.053333-23.274667 13.525333-28.138666 25.194667-1.408 3.349333-2.56 10.538667-2.56 15.936a42.24 42.24 0 0 0 22.869333 38.08c6.506667 3.477333 9.301333 3.733333 40.277333 3.733333s33.770667-0.256 40.277334-3.733333A42.24 42.24 0 0 0 788.48 682.666667a42.24 42.24 0 0 0-22.869333-38.08c-6.357333-3.392-9.770667-3.754667-37.717334-4.074667-16.896-0.192-32.64 0.256-35.008 1.024" p-id="2481" fill="#424242"></path></svg>