<?xml version="1.0" encoding="UTF-8" standalone="no"?>
<svg
   xmlns:dc="http://purl.org/dc/elements/1.1/"
   xmlns:cc="http://creativecommons.org/ns#"
   xmlns:rdf="http://www.w3.org/1999/02/22-rdf-syntax-ns#"
   xmlns:svg="http://www.w3.org/2000/svg"
   xmlns="http://www.w3.org/2000/svg"
   xmlns:sodipodi="http://sodipodi.sourceforge.net/DTD/sodipodi-0.dtd"
   xmlns:inkscape="http://www.inkscape.org/namespaces/inkscape"
   t="1625987655332"
   class="icon"
   viewBox="0 0 1024 1024"
   version="1.1"
   p-id="2417"
   width="200"
   height="200"
   id="svg939"
   sodipodi:docname="coal.svg"
   inkscape:version="0.92.4 (5da689c313, 2019-01-14)">
  <metadata
     id="metadata943">
    <rdf:RDF>
      <cc:Work
         rdf:about="">
        <dc:format>image/svg+xml</dc:format>
        <dc:type
           rdf:resource="http://purl.org/dc/dcmitype/StillImage" />
        <dc:title></dc:title>
      </cc:Work>
    </rdf:RDF>
  </metadata>
  <sodipodi:namedview
     pagecolor="#ffffff"
     bordercolor="#666666"
     borderopacity="1"
     objecttolerance="10"
     gridtolerance="10"
     guidetolerance="10"
     inkscape:pageopacity="0"
     inkscape:pageshadow="2"
     inkscape:window-width="1280"
     inkscape:window-height="692"
     id="namedview941"
     showgrid="false"
     inkscape:zoom="1.2175"
     inkscape:cx="95.360077"
     inkscape:cy="140.89245"
     inkscape:window-x="0"
     inkscape:window-y="0"
     inkscape:window-maximized="1"
     inkscape:current-layer="svg939" />
  <defs
     id="defs925">
    <style
       type="text/css"
       id="style923" />
  </defs>
  <path
     d="M 514.84672,3.3587192 167.424,79.912959 228.864,240.04608 654.52032,399.58528 877.62944,226.57024 Z"
     p-id="2418"
     id="path927"
     inkscape:connector-curvature="0"
     style="fill:#9c9ca8" />
  <path
     d="M 167.424,79.912957 413.184,703.77472 91.32032,772.17792 44.544,346.29632 Z M 654.52032,399.58528 413.184,703.77472 510.8736,819.85536 843.5712,679.19872 Z"
     p-id="2419"
     id="path929"
     inkscape:connector-curvature="0"
     style="fill:#4d4d59" />
  <path
     d="M 230.66624,240.64 413.184,703.77472 654.52032,399.58528 Z m 646.9632,-14.04928 -223.10912,172.99456 311.7056,461.33248 z"
     p-id="2420"
     id="path931"
     inkscape:connector-curvature="0"
     style="fill:#797985" />
  <path
     d="M 600.7808,781.59872 789.15584,1017.0778 H 291.69664 L 510.8736,819.85536 Z M 413.184,703.77472 176.7424,926.14656 91.32032,772.17792 Z"
     p-id="2421"
     id="path933"
     inkscape:connector-curvature="0"
     style="fill:#23232f" />
  <path
     d="m 843.5712,679.19872 -242.81088,102.4 188.39552,235.47908 177.07008,-156.16004 z M 413.184,703.77472 510.8736,819.85536 291.71712,1017.0778 176.7424,926.14656 Z"
     p-id="2422"
     id="path935"
     style="fill:#23232f;fill-opacity:1"
     inkscape:connector-curvature="0" />
  <path
     d="M881.72544 219.97568l5.0176 6.47168-220.0576 170.63936 186.88 276.45952-6.77888 4.58752-185.91744-274.98496-236.46208 299.54048 94.63808 112.47616-3.13344 2.6624-96.27648-114.44224-103.99744 98.01728-2.80576-2.9696 100.352-94.65856-283.0336 55.99232-0.77824-4.01408 286.57664-56.68864L232.61184 238.40768 235.47904 237.2608l1.06496-2.8672 422.912 157.9008 222.26944-172.31872zM240.88576 242.56512l179.75296 451.66592L655.11424 397.23008 240.88576 242.56512z"
     fill="#C4C4C4"
     p-id="2423"
     id="path937"
     style="fill:#400000;fill-opacity:0" />
  <path
     style="opacity:0.6;fill:#4d4d59;fill-opacity:0;stroke-width:0.41067761"
     d="m 91.540041,148.59208 c -5.082135,-6.0745 -9.395458,-11.04715 -9.585158,-11.05034 -0.1897,-0.003 -4.856025,4.26041 -10.36961,9.47468 -5.513585,5.21427 -10.024698,9.29588 -10.024698,9.07025 0,-0.22562 4.256123,-4.42463 9.458057,-9.33112 5.201931,-4.90649 9.381483,-8.99746 9.287898,-9.09104 -0.09358,-0.0936 -12.410169,2.25102 -27.370185,5.21023 -14.960016,2.95922 -27.297439,5.28299 -27.416495,5.16393 -0.348026,-0.34802 -0.307371,-0.35664 28.224408,-5.98293 15.013142,-2.9605 27.353257,-5.43936 27.422481,-5.50859 0.06922,-0.0692 -7.846456,-20.1574 -17.590395,-44.640403 -9.74394,-24.483003 -17.806516,-44.743998 -17.916836,-45.024435 -0.110318,-0.280437 0.09645,-0.623865 0.459478,-0.763173 0.379845,-0.14576 17.985909,6.216323 41.472143,14.986271 22.446651,8.381758 40.942361,15.239559 41.101591,15.239559 0.15923,0 3.46152,-2.458919 7.33843,-5.464264 3.87692,-3.005346 13.3323,-10.32954 21.01197,-16.275987 7.67967,-5.946447 14.20332,-11.002454 14.497,-11.23557 0.37883,-0.300714 0.70928,-0.248529 1.13744,0.179631 0.53085,0.530854 -1.96902,2.597223 -20.77266,17.170481 -11.75688,9.111851 -21.43361,16.67862 -21.50387,16.815041 -0.0702,0.136422 8.05817,12.338385 18.06317,27.115479 10.005,14.77709 18.09635,27.02041 17.9808,27.20739 -0.11556,0.18697 -0.43021,0.33433 -0.69922,0.32745 -0.26901,-0.007 -8.60375,-12.03177 -18.52165,-26.72198 l -18.03254,-26.70948 -0.9012,0.951962 c -0.49566,0.523579 -10.92341,13.665654 -23.17277,29.204608 -19.740294,25.04159 -22.209431,28.33222 -21.724803,28.95277 0.300719,0.38507 4.395742,5.27941 9.100041,10.87631 4.7043,5.5969 8.493462,10.33855 8.420352,10.537 -0.0731,0.19844 -4.291033,-4.60924 -9.373169,-10.68373 z m 13.705619,-42.16926 c 12.33871,-15.64404 22.43028,-28.580386 22.42571,-28.747434 -0.01,-0.351415 -80.04797,-30.240607 -80.301225,-29.987352 -0.09266,0.09266 7.515181,19.46852 16.906312,43.057469 9.391132,23.588947 17.248874,43.334897 17.461654,43.879897 0.221971,0.56854 0.533211,0.83111 0.730205,0.61601 0.188834,-0.20618 10.438641,-13.17455 22.777344,-28.81859 z"
     id="path945"
     inkscape:connector-curvature="0"
     transform="scale(5.12)" />
  <path
     style="opacity:0.6;fill:#4d4d59;fill-opacity:0;stroke-width:0.41067761"
     d="m 91.38494,148.41845 c -5.031917,-5.98538 -9.283864,-10.88252 -9.448772,-10.88252 -0.164907,0 -2.66269,2.24044 -5.550628,4.97874 -2.887938,2.7383 -5.343088,4.88644 -5.455889,4.77364 -0.112805,-0.1128 2.059643,-2.35323 4.827659,-4.97874 2.768016,-2.6255 4.750969,-4.77364 4.406567,-4.77364 -0.344403,0 -4.772682,0.8371 -9.84062,1.86023 -23.990777,4.84329 -44.482245,8.7994 -44.659608,8.62204 -0.336674,-0.33667 0.296609,-0.47074 28.336282,-5.99891 l 27.38802,-5.39968 -0.758756,-1.90324 C 61.193467,85.964743 45.966367,47.639921 45.813426,47.089179 c -0.112612,-0.405517 0.07216,-0.81744 0.427907,-0.953952 0.344356,-0.132142 18.799614,6.54656 41.011685,14.84156 22.212072,8.294999 40.671232,15.157927 41.020342,15.25095 0.35344,0.09417 2.71956,-1.44402 5.33881,-3.470728 2.58723,-2.001924 12.17162,-9.431194 21.29865,-16.50949 9.12703,-7.078296 16.88176,-12.890435 17.23273,-12.915864 2.24718,-0.162815 -0.6642,2.339841 -20.48934,17.612904 -11.72772,9.034907 -21.25416,16.625697 -21.16986,16.868423 0.0843,0.242724 8.14489,12.255047 17.91241,26.694048 9.76752,14.43899 17.77857,26.51004 17.80234,26.82454 0.0238,0.3145 -0.1592,0.64377 -0.40657,0.73172 -0.24738,0.0879 -8.5636,-11.85403 -18.48049,-26.53773 -9.9169,-14.683696 -18.15235,-26.655677 -18.301,-26.604406 -0.37017,0.127677 -45.545249,57.380646 -45.800342,58.045396 -0.112218,0.29244 3.647191,5.10454 8.354238,10.69356 9.385734,11.14439 9.783234,11.64194 9.300234,11.6413 -0.1822,-2.4e-4 -4.448312,-4.89757 -9.48023,-10.88296 z M 105.6233,105.91853 C 117.82731,90.448871 127.6809,77.668593 127.52017,77.51791 127.00475,77.034719 47.667434,47.555016 47.454778,47.767672 c -0.112577,0.112577 7.626056,19.888938 17.196962,43.94747 16.348309,41.094988 17.443439,43.700028 18.092046,43.036408 0.379717,-0.38851 10.675495,-13.36337 22.879514,-28.83302 z"
     id="path947"
     inkscape:connector-curvature="0"
     transform="scale(5.12)" />
  <path
     style="opacity:0.6;fill:#4d4d59;fill-opacity:0;stroke-width:0.41067761"
     d="m 19.255735,149.78191 c -0.172289,-0.56467 -8.811627,-79.696727 -8.936709,-81.855832 -0.0491,-0.847474 3.36558,-8.66683 10.939803,-25.051335 6.056148,-13.100616 11.377132,-24.63487 11.82441,-25.631676 0.581255,-1.295385 0.903462,-1.646829 1.129543,-1.232033 0.173971,0.319188 2.939742,7.212722 6.146157,15.318964 3.608949,9.123901 5.667397,14.839022 5.403417,15.00217 -0.262178,0.162035 6.457192,17.556916 17.444724,45.160317 9.829138,24.693215 17.813359,44.937105 17.742715,44.986395 -0.101093,0.0705 -44.113874,8.78098 -53.633563,10.61446 -2.388496,0.46002 -2.763678,1.41621 -0.464442,1.18368 2.39689,-0.24241 1.15298,0.22905 -2.498607,0.947 -1.919918,0.37748 -3.815079,0.7793 -4.211469,0.89294 -0.39639,0.11364 -0.79508,-0.0371 -0.885979,-0.33505 z"
     id="path949"
     inkscape:connector-curvature="0"
     transform="scale(5.12)" />
  <path
     style="opacity:0.6;fill:#4d4d59;fill-opacity:0;stroke-width:0.41067761"
     d="m 19.255735,149.78191 c -0.172289,-0.56467 -8.811627,-79.696727 -8.936709,-81.855832 -0.0491,-0.847474 3.36558,-8.66683 10.939803,-25.051335 6.056148,-13.100616 11.377132,-24.63487 11.82441,-25.631676 0.581255,-1.295385 0.903462,-1.646829 1.129543,-1.232033 0.173971,0.319188 2.939742,7.212722 6.146157,15.318964 3.608949,9.123901 5.667397,14.839022 5.403417,15.00217 -0.262178,0.162035 6.457192,17.556916 17.444724,45.160317 9.829138,24.693215 17.813359,44.937105 17.742715,44.986395 -0.101093,0.0705 -44.113874,8.78098 -53.633563,10.61446 -2.388496,0.46002 -2.763678,1.41621 -0.464442,1.18368 2.39689,-0.24241 1.15298,0.22905 -2.498607,0.947 -1.919918,0.37748 -3.815079,0.7793 -4.211469,0.89294 -0.39639,0.11364 -0.79508,-0.0371 -0.885979,-0.33505 z"
     id="path951"
     inkscape:connector-curvature="0"
     transform="scale(5.12)" />
  <path
     style="opacity:0.6;fill:#4d4d59;fill-opacity:0;stroke-width:0.41067761"
     d="m 19.255735,149.78191 c -0.172289,-0.56467 -8.811627,-79.696727 -8.936709,-81.855832 -0.0491,-0.847474 3.36558,-8.66683 10.939803,-25.051335 6.056148,-13.100616 11.377132,-24.63487 11.82441,-25.631676 0.581255,-1.295385 0.903462,-1.646829 1.129543,-1.232033 0.173971,0.319188 2.939742,7.212722 6.146157,15.318964 3.608949,9.123901 5.667397,14.839022 5.403417,15.00217 -0.262178,0.162035 6.457192,17.556916 17.444724,45.160317 9.829138,24.693215 17.813359,44.937105 17.742715,44.986395 -0.101093,0.0705 -44.113874,8.78098 -53.633563,10.61446 -2.388496,0.46002 -2.763678,1.41621 -0.464442,1.18368 2.39689,-0.24241 1.15298,0.22905 -2.498607,0.947 -1.919918,0.37748 -3.815079,0.7793 -4.211469,0.89294 -0.39639,0.11364 -0.79508,-0.0371 -0.885979,-0.33505 z"
     id="path953"
     inkscape:connector-curvature="0"
     transform="scale(5.12)" />
  <path
     style="opacity:0.6;fill:#4d4d59;fill-opacity:0;stroke-width:0.41067761"
     d="m 19.255735,149.78191 c -0.172289,-0.56467 -8.811627,-79.696727 -8.936709,-81.855832 -0.0491,-0.847474 3.36558,-8.66683 10.939803,-25.051335 6.056148,-13.100616 11.377132,-24.63487 11.82441,-25.631676 0.581255,-1.295385 0.903462,-1.646829 1.129543,-1.232033 0.173971,0.319188 2.939742,7.212722 6.146157,15.318964 3.608949,9.123901 5.667397,14.839022 5.403417,15.00217 -0.262178,0.162035 6.457192,17.556916 17.444724,45.160317 9.829138,24.693215 17.813359,44.937105 17.742715,44.986395 -0.101093,0.0705 -44.113874,8.78098 -53.633563,10.61446 -2.388496,0.46002 -2.763678,1.41621 -0.464442,1.18368 2.39689,-0.24241 1.15298,0.22905 -2.498607,0.947 -1.919918,0.37748 -3.815079,0.7793 -4.211469,0.89294 -0.39639,0.11364 -0.79508,-0.0371 -0.885979,-0.33505 z"
     id="path955"
     inkscape:connector-curvature="0"
     transform="scale(5.12)" />
  <path
     style="opacity:0.6;fill:#4d4d59;fill-opacity:0;stroke-width:0.41067761"
     d="m 19.255735,149.78191 c -0.172289,-0.56467 -8.811627,-79.696727 -8.936709,-81.855832 -0.0491,-0.847474 3.36558,-8.66683 10.939803,-25.051335 6.056148,-13.100616 11.377132,-24.63487 11.82441,-25.631676 0.581255,-1.295385 0.903462,-1.646829 1.129543,-1.232033 0.173971,0.319188 2.939742,7.212722 6.146157,15.318964 3.608949,9.123901 5.667397,14.839022 5.403417,15.00217 -0.262178,0.162035 6.457192,17.556916 17.444724,45.160317 9.829138,24.693215 17.813359,44.937105 17.742715,44.986395 -0.101093,0.0705 -44.113874,8.78098 -53.633563,10.61446 -2.388496,0.46002 -2.763678,1.41621 -0.464442,1.18368 2.39689,-0.24241 1.15298,0.22905 -2.498607,0.947 -1.919918,0.37748 -3.815079,0.7793 -4.211469,0.89294 -0.39639,0.11364 -0.79508,-0.0371 -0.885979,-0.33505 z"
     id="path957"
     inkscape:connector-curvature="0"
     transform="scale(5.12)" />
  <path
     style="opacity:0.6;fill:#4d4d59;fill-opacity:0;stroke-width:0.41067761"
     d="m 19.255735,149.78191 c -0.172289,-0.56467 -8.811627,-79.696727 -8.936709,-81.855832 -0.0491,-0.847474 3.36558,-8.66683 10.939803,-25.051335 6.056148,-13.100616 11.377132,-24.63487 11.82441,-25.631676 0.581255,-1.295385 0.903462,-1.646829 1.129543,-1.232033 0.173971,0.319188 2.939742,7.212722 6.146157,15.318964 3.608949,9.123901 5.667397,14.839022 5.403417,15.00217 -0.262178,0.162035 6.457192,17.556916 17.444724,45.160317 9.829138,24.693215 17.813359,44.937105 17.742715,44.986395 -0.101093,0.0705 -44.113874,8.78098 -53.633563,10.61446 -2.388496,0.46002 -2.763678,1.41621 -0.464442,1.18368 2.39689,-0.24241 1.15298,0.22905 -2.498607,0.947 -1.919918,0.37748 -3.815079,0.7793 -4.211469,0.89294 -0.39639,0.11364 -0.79508,-0.0371 -0.885979,-0.33505 z"
     id="path959"
     inkscape:connector-curvature="0"
     transform="scale(5.12)" />
  <path
     style="opacity:0.6;fill:#4d4d59;fill-opacity:0;stroke-width:0.41067761"
     d="M 64.644897,91.493598 C 55.109122,67.525547 47.376572,47.845879 47.461451,47.761 c 0.205288,-0.205289 79.830919,29.53187 80.025669,29.886556 0.17326,0.315548 -44.806292,57.424314 -45.228079,57.424314 -0.152005,0 -8.07837,-19.61022 -17.614144,-43.578272 z"
     id="path961"
     inkscape:connector-curvature="0"
     transform="scale(5.12)" />
  <path
     style="opacity:0.6;fill:#4d4d59;fill-opacity:0;stroke-width:0.41067761"
     d="M 64.644897,91.493598 C 55.109122,67.525547 47.376572,47.845879 47.461451,47.761 c 0.205288,-0.205289 79.830919,29.53187 80.025669,29.886556 0.17326,0.315548 -44.806292,57.424314 -45.228079,57.424314 -0.152005,0 -8.07837,-19.61022 -17.614144,-43.578272 z"
     id="path963"
     inkscape:connector-curvature="0"
     transform="scale(5.12)" />
  <path
     style="opacity:0.6;fill:#4d4d59;fill-opacity:0;stroke-width:0.41067761"
     d="M 64.644897,91.493598 C 55.109122,67.525547 47.376572,47.845879 47.461451,47.761 c 0.205288,-0.205289 79.830919,29.53187 80.025669,29.886556 0.17326,0.315548 -44.806292,57.424314 -45.228079,57.424314 -0.152005,0 -8.07837,-19.61022 -17.614144,-43.578272 z"
     id="path965"
     inkscape:connector-curvature="0"
     transform="scale(5.12)" />
  <path
     style="opacity:0.6;fill:#4d4d59;fill-opacity:0;stroke-width:0.41067761"
     d="M 64.644897,91.493598 C 55.109122,67.525547 47.376572,47.845879 47.461451,47.761 c 0.205288,-0.205289 79.830919,29.53187 80.025669,29.886556 0.17326,0.315548 -44.806292,57.424314 -45.228079,57.424314 -0.152005,0 -8.07837,-19.61022 -17.614144,-43.578272 z"
     id="path967"
     inkscape:connector-curvature="0"
     transform="scale(5.12)" />
  <path
     style="opacity:0.6;fill:#4d4d59;fill-opacity:0;stroke-width:0.41067761"
     d="M 64.644897,91.493598 C 55.109122,67.525547 47.376572,47.845879 47.461451,47.761 c 0.205288,-0.205289 79.830919,29.53187 80.025669,29.886556 0.17326,0.315548 -44.806292,57.424314 -45.228079,57.424314 -0.152005,0 -8.07837,-19.61022 -17.614144,-43.578272 z"
     id="path969"
     inkscape:connector-curvature="0"
     transform="scale(5.12)" />
  <path
     style="opacity:0.6;fill:#4d4d59;fill-opacity:0;stroke-width:0.41067761"
     d="m 137.4765,175.86008 c -9.70242,-12.13174 -17.92555,-22.40983 -18.27361,-22.84019 -0.61193,-0.75664 -0.9074,-0.6658 -8.94426,2.74974 -4.57129,1.94272 -8.38933,3.53222 -8.48454,3.53222 -0.0952,0 -4.094263,-4.66633 -8.886774,-10.36961 -4.792511,-5.70329 -8.971862,-10.6748 -9.287446,-11.0478 -0.511101,-0.6041 1.927637,-3.84676 22.32191,-29.68032 12.59264,-15.951167 23.03722,-28.951937 23.21018,-28.890597 0.17296,0.06134 8.3723,12.031446 18.22075,26.600237 9.84845,14.56879 18.12752,26.45265 18.39793,26.40858 0.27042,-0.0441 5.79494,7.80309 12.27673,17.43812 9.10865,13.53981 11.68224,17.64214 11.33231,18.06379 -0.57686,0.69507 -33.58661,29.83886 -33.96227,29.98475 -0.15408,0.0598 -8.21848,-9.81718 -17.92091,-21.94892 z"
     id="path971"
     inkscape:connector-curvature="0"
     transform="scale(5.12)" />
  <path
     style="opacity:0.6;fill:#4d4d59;fill-opacity:0;stroke-width:0.41067761"
     d="m 137.4765,175.86008 c -9.70242,-12.13174 -17.92555,-22.40983 -18.27361,-22.84019 -0.61193,-0.75664 -0.9074,-0.6658 -8.94426,2.74974 -4.57129,1.94272 -8.38933,3.53222 -8.48454,3.53222 -0.0952,0 -4.094263,-4.66633 -8.886774,-10.36961 -4.792511,-5.70329 -8.971862,-10.6748 -9.287446,-11.0478 -0.511101,-0.6041 1.927637,-3.84676 22.32191,-29.68032 12.59264,-15.951167 23.03722,-28.951937 23.21018,-28.890597 0.17296,0.06134 8.3723,12.031446 18.22075,26.600237 9.84845,14.56879 18.12752,26.45265 18.39793,26.40858 0.27042,-0.0441 5.79494,7.80309 12.27673,17.43812 9.10865,13.53981 11.68224,17.64214 11.33231,18.06379 -0.57686,0.69507 -33.58661,29.83886 -33.96227,29.98475 -0.15408,0.0598 -8.21848,-9.81718 -17.92091,-21.94892 z"
     id="path973"
     inkscape:connector-curvature="0"
     transform="scale(5.12)" />
  <path
     style="opacity:0.6;fill:#4d4d59;fill-opacity:0;stroke-width:0.41067761"
     d="m 137.4765,175.86008 c -9.70242,-12.13174 -17.92555,-22.40983 -18.27361,-22.84019 -0.61193,-0.75664 -0.9074,-0.6658 -8.94426,2.74974 -4.57129,1.94272 -8.38933,3.53222 -8.48454,3.53222 -0.0952,0 -4.094263,-4.66633 -8.886774,-10.36961 -4.792511,-5.70329 -8.971862,-10.6748 -9.287446,-11.0478 -0.511101,-0.6041 1.927637,-3.84676 22.32191,-29.68032 12.59264,-15.951167 23.03722,-28.951937 23.21018,-28.890597 0.17296,0.06134 8.3723,12.031446 18.22075,26.600237 9.84845,14.56879 18.12752,26.45265 18.39793,26.40858 0.27042,-0.0441 5.79494,7.80309 12.27673,17.43812 9.10865,13.53981 11.68224,17.64214 11.33231,18.06379 -0.57686,0.69507 -33.58661,29.83886 -33.96227,29.98475 -0.15408,0.0598 -8.21848,-9.81718 -17.92091,-21.94892 z"
     id="path975"
     inkscape:connector-curvature="0"
     transform="scale(5.12)" />
  <path
     style="opacity:0.6;fill:#4d4d59;fill-opacity:0;stroke-width:0.41067761"
     d="m 137.4765,175.86008 c -9.70242,-12.13174 -17.92555,-22.40983 -18.27361,-22.84019 -0.61193,-0.75664 -0.9074,-0.6658 -8.94426,2.74974 -4.57129,1.94272 -8.38933,3.53222 -8.48454,3.53222 -0.0952,0 -4.094263,-4.66633 -8.886774,-10.36961 -4.792511,-5.70329 -8.971862,-10.6748 -9.287446,-11.0478 -0.511101,-0.6041 1.927637,-3.84676 22.32191,-29.68032 12.59264,-15.951167 23.03722,-28.951937 23.21018,-28.890597 0.17296,0.06134 8.3723,12.031446 18.22075,26.600237 9.84845,14.56879 18.12752,26.45265 18.39793,26.40858 0.27042,-0.0441 5.79494,7.80309 12.27673,17.43812 9.10865,13.53981 11.68224,17.64214 11.33231,18.06379 -0.57686,0.69507 -33.58661,29.83886 -33.96227,29.98475 -0.15408,0.0598 -8.21848,-9.81718 -17.92091,-21.94892 z"
     id="path977"
     inkscape:connector-curvature="0"
     transform="scale(5.12)" />
  <path
     style="opacity:0.6;fill:#4d4d59;fill-opacity:0;stroke-width:0.41067761"
     d="m 137.4765,175.86008 c -9.70242,-12.13174 -17.92555,-22.40983 -18.27361,-22.84019 -0.61193,-0.75664 -0.9074,-0.6658 -8.94426,2.74974 -4.57129,1.94272 -8.38933,3.53222 -8.48454,3.53222 -0.0952,0 -4.094263,-4.66633 -8.886774,-10.36961 -4.792511,-5.70329 -8.971862,-10.6748 -9.287446,-11.0478 -0.511101,-0.6041 1.927637,-3.84676 22.32191,-29.68032 12.59264,-15.951167 23.03722,-28.951937 23.21018,-28.890597 0.17296,0.06134 8.3723,12.031446 18.22075,26.600237 9.84845,14.56879 18.12752,26.45265 18.39793,26.40858 0.27042,-0.0441 5.79494,7.80309 12.27673,17.43812 9.10865,13.53981 11.68224,17.64214 11.33231,18.06379 -0.57686,0.69507 -33.58661,29.83886 -33.96227,29.98475 -0.15408,0.0598 -8.21848,-9.81718 -17.92091,-21.94892 z"
     id="path979"
     inkscape:connector-curvature="0"
     transform="scale(5.12)" />
  <path
     style="opacity:0.6;fill:#4d4d59;fill-opacity:0;stroke-width:0.41067761"
     d="m 137.4765,175.86008 c -9.70242,-12.13174 -17.92555,-22.40983 -18.27361,-22.84019 -0.61193,-0.75664 -0.9074,-0.6658 -8.94426,2.74974 -4.57129,1.94272 -8.38933,3.53222 -8.48454,3.53222 -0.0952,0 -4.094263,-4.66633 -8.886774,-10.36961 -4.792511,-5.70329 -8.971862,-10.6748 -9.287446,-11.0478 -0.511101,-0.6041 1.927637,-3.84676 22.32191,-29.68032 12.59264,-15.951167 23.03722,-28.951937 23.21018,-28.890597 0.17296,0.06134 8.3723,12.031446 18.22075,26.600237 9.84845,14.56879 18.12752,26.45265 18.39793,26.40858 0.27042,-0.0441 5.79494,7.80309 12.27673,17.43812 9.10865,13.53981 11.68224,17.64214 11.33231,18.06379 -0.57686,0.69507 -33.58661,29.83886 -33.96227,29.98475 -0.15408,0.0598 -8.21848,-9.81718 -17.92091,-21.94892 z"
     id="path981"
     inkscape:connector-curvature="0"
     transform="scale(5.12)" />
  <path
     style="opacity:0.6;fill:#4d4d59;fill-opacity:0;stroke-width:0.41067761"
     d="m 137.4765,175.86008 c -9.70242,-12.13174 -17.92555,-22.40983 -18.27361,-22.84019 -0.61193,-0.75664 -0.9074,-0.6658 -8.94426,2.74974 -4.57129,1.94272 -8.38933,3.53222 -8.48454,3.53222 -0.0952,0 -4.094263,-4.66633 -8.886774,-10.36961 -4.792511,-5.70329 -8.971862,-10.6748 -9.287446,-11.0478 -0.511101,-0.6041 1.927637,-3.84676 22.32191,-29.68032 12.59264,-15.951167 23.03722,-28.951937 23.21018,-28.890597 0.17296,0.06134 8.3723,12.031446 18.22075,26.600237 9.84845,14.56879 18.12752,26.45265 18.39793,26.40858 0.27042,-0.0441 5.79494,7.80309 12.27673,17.43812 9.10865,13.53981 11.68224,17.64214 11.33231,18.06379 -0.57686,0.69507 -33.58661,29.83886 -33.96227,29.98475 -0.15408,0.0598 -8.21848,-9.81718 -17.92091,-21.94892 z"
     id="path983"
     inkscape:connector-curvature="0"
     transform="scale(5.12)" />
  <path
     style="opacity:0.6;fill:#4d4d59;fill-opacity:0;stroke-width:0.41067761"
     d="M 64.644897,91.493598 C 55.109122,67.525547 47.376572,47.845879 47.461451,47.761 c 0.205288,-0.205289 79.830919,29.53187 80.025669,29.886556 0.17326,0.315548 -44.806292,57.424314 -45.228079,57.424314 -0.152005,0 -8.07837,-19.61022 -17.614144,-43.578272 z"
     id="path987"
     inkscape:connector-curvature="0"
     transform="scale(5.12)" />
  <path
     style="opacity:0.6;fill:#4d4d59;fill-opacity:0;stroke-width:0.41067761"
     d="m 137.4765,175.86008 c -9.70242,-12.13174 -17.92555,-22.40983 -18.27361,-22.84019 -0.61193,-0.75664 -0.9074,-0.6658 -8.94426,2.74974 -4.57129,1.94272 -8.38933,3.53222 -8.48454,3.53222 -0.0952,0 -4.094263,-4.66633 -8.886774,-10.36961 -4.792511,-5.70329 -8.971862,-10.6748 -9.287446,-11.0478 -0.511101,-0.6041 1.927637,-3.84676 22.32191,-29.68032 12.59264,-15.951167 23.03722,-28.951937 23.21018,-28.890597 0.17296,0.06134 8.3723,12.031446 18.22075,26.600237 9.84845,14.56879 18.12752,26.45265 18.39793,26.40858 0.27042,-0.0441 5.79494,7.80309 12.27673,17.43812 9.10865,13.53981 11.68224,17.64214 11.33231,18.06379 -0.57686,0.69507 -33.58661,29.83886 -33.96227,29.98475 -0.15408,0.0598 -8.21848,-9.81718 -17.92091,-21.94892 z"
     id="path989"
     inkscape:connector-curvature="0"
     transform="scale(5.12)" />
  <path
     style="opacity:0.6;fill:#4d4d59;fill-opacity:0;stroke-width:0.41067761"
     d="m 137.4765,175.86008 c -9.70242,-12.13174 -17.92555,-22.40983 -18.27361,-22.84019 -0.61193,-0.75664 -0.9074,-0.6658 -8.94426,2.74974 -4.57129,1.94272 -8.38933,3.53222 -8.48454,3.53222 -0.0952,0 -4.094263,-4.66633 -8.886774,-10.36961 -4.792511,-5.70329 -8.971862,-10.6748 -9.287446,-11.0478 -0.511101,-0.6041 1.927637,-3.84676 22.32191,-29.68032 12.59264,-15.951167 23.03722,-28.951937 23.21018,-28.890597 0.17296,0.06134 8.3723,12.031446 18.22075,26.600237 9.84845,14.56879 18.12752,26.45265 18.39793,26.40858 0.27042,-0.0441 5.79494,7.80309 12.27673,17.43812 9.10865,13.53981 11.68224,17.64214 11.33231,18.06379 -0.57686,0.69507 -33.58661,29.83886 -33.96227,29.98475 -0.15408,0.0598 -8.21848,-9.81718 -17.92091,-21.94892 z"
     id="path991"
     inkscape:connector-curvature="0"
     transform="scale(5.12)" />
  <path
     style="opacity:0.6;fill:#4d4d59;fill-opacity:0;stroke-width:0.41067761"
     d="m 91.38494,148.41845 c -5.031917,-5.98538 -9.283864,-10.88252 -9.448772,-10.88252 -0.164907,0 -2.66269,2.24044 -5.550628,4.97874 -2.887938,2.7383 -5.343088,4.88644 -5.455889,4.77364 -0.112805,-0.1128 2.059643,-2.35323 4.827659,-4.97874 2.768016,-2.6255 4.750969,-4.77364 4.406567,-4.77364 -0.344403,0 -4.772682,0.8371 -9.84062,1.86023 -23.990777,4.84329 -44.482245,8.7994 -44.659608,8.62204 -0.336674,-0.33667 0.296609,-0.47074 28.336282,-5.99891 l 27.38802,-5.39968 -0.758756,-1.90324 C 61.193467,85.964743 45.966367,47.639921 45.813426,47.089179 c -0.112612,-0.405517 0.07216,-0.81744 0.427907,-0.953952 0.344356,-0.132142 18.799614,6.54656 41.011685,14.84156 22.212072,8.294999 40.671232,15.157927 41.020342,15.25095 0.35344,0.09417 2.71956,-1.44402 5.33881,-3.470728 2.58723,-2.001924 12.17162,-9.431194 21.29865,-16.50949 9.12703,-7.078296 16.88176,-12.890435 17.23273,-12.915864 2.24718,-0.162815 -0.6642,2.339841 -20.48934,17.612904 -11.72772,9.034907 -21.25416,16.625697 -21.16986,16.868423 0.0843,0.242724 8.14489,12.255047 17.91241,26.694048 9.76752,14.43899 17.77857,26.51004 17.80234,26.82454 0.0238,0.3145 -0.1592,0.64377 -0.40657,0.73172 -0.24738,0.0879 -8.5636,-11.85403 -18.48049,-26.53773 -9.9169,-14.683696 -18.15235,-26.655677 -18.301,-26.604406 -0.37017,0.127677 -45.545249,57.380646 -45.800342,58.045396 -0.112218,0.29244 3.647191,5.10454 8.354238,10.69356 9.385734,11.14439 9.783234,11.64194 9.300234,11.6413 -0.1822,-2.4e-4 -4.448312,-4.89757 -9.48023,-10.88296 z M 105.6233,105.91853 C 117.82731,90.448871 127.6809,77.668593 127.52017,77.51791 127.00475,77.034719 47.667434,47.555016 47.454778,47.767672 c -0.112577,0.112577 7.626056,19.888938 17.196962,43.94747 16.348309,41.094988 17.443439,43.700028 18.092046,43.036408 0.379717,-0.38851 10.675495,-13.36337 22.879514,-28.83302 z"
     id="path993"
     inkscape:connector-curvature="0"
     transform="scale(5.12)" />
  <path
     style="opacity:0.6;fill:#4d4d59;fill-opacity:0;stroke-width:0.41067761"
     d="M 64.644897,91.493598 C 55.109122,67.525547 47.376572,47.845879 47.461451,47.761 c 0.205288,-0.205289 79.830919,29.53187 80.025669,29.886556 0.17326,0.315548 -44.806292,57.424314 -45.228079,57.424314 -0.152005,0 -8.07837,-19.61022 -17.614144,-43.578272 z"
     id="path995"
     inkscape:connector-curvature="0"
     transform="scale(5.12)" />
  <path
     style="opacity:0.6;fill:#4d4d59;fill-opacity:0;stroke-width:0.41067761"
     d="M 64.644897,91.493598 C 55.109122,67.525547 47.376572,47.845879 47.461451,47.761 c 0.205288,-0.205289 79.830919,29.53187 80.025669,29.886556 0.17326,0.315548 -44.806292,57.424314 -45.228079,57.424314 -0.152005,0 -8.07837,-19.61022 -17.614144,-43.578272 z"
     id="path997"
     inkscape:connector-curvature="0"
     transform="scale(5.12)" />
  <path
     style="opacity:0.6;fill:#4d4d59;fill-opacity:0;stroke-width:0.41067761"
     d="M 64.644897,91.493598 C 55.109122,67.525547 47.376572,47.845879 47.461451,47.761 c 0.205288,-0.205289 79.830919,29.53187 80.025669,29.886556 0.17326,0.315548 -44.806292,57.424314 -45.228079,57.424314 -0.152005,0 -8.07837,-19.61022 -17.614144,-43.578272 z"
     id="path999"
     inkscape:connector-curvature="0"
     transform="scale(5.12)" />
  <path
     style="fill:#23232f;stroke:#23232f;stroke-width:5.11999989px;stroke-linecap:butt;stroke-linejoin:miter;stroke-opacity:1;fill-opacity:1;opacity:1"
     d="M 413.184,703.77472 176.7424,926.14656 v 0"
     id="path1022"
     inkscape:connector-curvature="0" />
  <path
     style="fill:none;stroke:#23232f;stroke-width:5.11999989px;stroke-linecap:butt;stroke-linejoin:miter;stroke-opacity:1"
     d="M 510.8736,819.85536 291.71712,1017.0778"
     id="path1070"
     inkscape:connector-curvature="0" />
  <path
     style="fill:none;stroke:#23232f;stroke-width:5.11999989px;stroke-linecap:butt;stroke-linejoin:miter;stroke-opacity:1"
     d="M 600.76032,781.59872 789.15584,1017.0778"
     id="path1072"
     inkscape:connector-curvature="0" />
  <path
     style="fill:none;stroke:#4d4d59;stroke-width:5.11999989px;stroke-linecap:butt;stroke-linejoin:miter;stroke-opacity:0"
     d="M 230.66624,240.64 413.184,703.77472"
     id="path1074"
     inkscape:connector-curvature="0" />
  <path
     style="fill:none;stroke:#9c9ca8;stroke-width:5.11999989px;stroke-linecap:butt;stroke-linejoin:miter;stroke-opacity:1"
     d="M 230.66624,240.64 654.52032,399.58528 877.62944,226.59072"
     id="path1078"
     inkscape:connector-curvature="0" />
</svg>
