<?xml version="1.0" standalone="no"?><!DOCTYPE svg PUBLIC "-//W3C//DTD SVG 1.1//EN" "http://www.w3.org/Graphics/SVG/1.1/DTD/svg11.dtd"><svg t="1626175645577" class="icon" viewBox="0 0 1024 1024" version="1.1" xmlns="http://www.w3.org/2000/svg" p-id="4907" xmlns:xlink="http://www.w3.org/1999/xlink" width="200" height="200"><defs><style type="text/css"></style></defs><path d="M575.5 26.2l267.1 265.1c35.1 34.8 35.1 91.4 0 126.3L575.5 682.7c-35.1 34.8-92.1 34.8-127.2 0L181.2 417.6c-35.1-34.8-35.1-91.4 0-126.3L448.3 26.2c35.1-34.8 92.1-34.8 127.2 0z" fill="#FDE7A4" p-id="4908"></path><path d="M575.5 682.7c-17.6 17.5-40.6 26.1-63.7 26.1V0c23.1 0 46 8.7 63.7 26.1l267.1 265.1c35.1 34.8 35.1 91.4 0 126.3L575.5 682.7z" fill="#FDDE7F" p-id="4909"></path><path d="M176 367h663.4c49.5 0 89.6 39.8 89.6 88.8 0 0 17.9 154.8 17.9 284.1 0 81.2-17.9 159.7-17.9 159.7 0 49.1-40.2 88.8-89.6 88.8 0 0-161.1 35.5-322.7 35.5-169.8 0-340.7-35.5-340.7-35.5-49.5 0-89.6-39.8-89.6-88.8 0 0-17.9-71.1-17.9-159.7 0-126.4 17.9-284.1 17.9-284.1 0-49 40.1-88.8 89.6-88.8z" fill="#E6C7B0" p-id="4910"></path><path d="M839.4 988.5S678.3 1024 516.7 1024H512V367h327.4c49.5 0 89.6 39.8 89.6 88.8 0 0 17.9 154.8 17.9 284.1 0 81.2-17.9 159.7-17.9 159.7 0 49.1-40.1 88.9-89.6 88.9z" fill="#DCB596" p-id="4911"></path><path d="M408.8 877.4c-35.4-20.8-45.2-70.8-41-78.3 4.4-7.7 51.8-23.9 87.2-3.1s50.3 61.8 41 78.3c-4.5 8-51.8 23.9-87.2 3.1z m51.4-137.9c0-40.9 38.3-73.9 47-73.9 8.9 0 47 33.1 47 73.9 0 40.9-28 73.9-47 73.9-9.4 0.2-47-33-47-73.9z" fill="#FFFDFB" p-id="4912"></path><path d="M935.9 525.9c-6.1 1.8-12.6 2.9-19.1 2.9 0 0-196.9 61.1-395.9 61.1-205.8 0-413.9-61.1-413.9-61.1-9.6 0-18.7-2-27.3-5.9 3.6-39.8 6.6-66.3 6.6-66.3 0-46.3 35.9-84.3 81.6-88.4 77.1 10.5 216.3 26.4 352.9 26.4 131 0 259.3-15 332.9-25.6 42.6 6.8 75.2 43.3 75.2 87.5 0.1 0.2 3.3 27.9 7 69.4z" fill="#B8845E" p-id="4913"></path><path d="M520.9 588.9c-3 0-6 0-9-0.1v-195h9c131 0 259.3-15 332.9-25.6 42.6 6.8 75.2 43.3 75.2 87.5 0 0 3.1 27.6 6.8 69.1-6.1 1.8-12.6 2.9-19.1 2.9 0 0.2-196.7 61.2-395.8 61.2z" fill="#945C34" p-id="4914"></path><path d="M107.1 315.8s210 35.5 413.9 35.5c201 0 395.9-35.5 395.9-35.5 49.7 0 89.9 39.6 89.9 88.7v17.8c0 48.9-40.3 88.7-89.9 88.7 0 0-196.9 35.5-395.9 35.5-205.8 0-413.9-35.5-413.9-35.5-49.7 0-89.9-39.6-89.9-88.7v-17.8c-0.1-49 40.2-88.7 89.9-88.7z" fill="#E6C7B0" p-id="4915"></path><path d="M916.7 510.8s-196.9 35.5-395.9 35.5h-9V351.2h9c201 0 395.9-35.5 395.9-35.5 49.7 0 89.9 39.6 89.9 88.7v17.8c0.2 48.9-40.1 88.6-89.9 88.6z" fill="#DCB596" p-id="4916"></path><path d="M615 877.4c35.4-20.8 45.2-70.8 41-78.3-4.4-7.7-51.8-23.9-87.2-3.1s-50.3 61.8-41 78.3c4.6 8 51.8 23.9 87.2 3.1z m-103-64.5V667.2c13.4 7 42.4 36.8 42.4 72.4 0 37.6-23.8 68.5-42.4 73.3z" fill="#FEF4E6" p-id="4917"></path></svg>