<?xml version="1.0" encoding="UTF-8" standalone="no"?>
<svg
   xmlns:dc="http://purl.org/dc/elements/1.1/"
   xmlns:cc="http://creativecommons.org/ns#"
   xmlns:rdf="http://www.w3.org/1999/02/22-rdf-syntax-ns#"
   xmlns:svg="http://www.w3.org/2000/svg"
   xmlns="http://www.w3.org/2000/svg"
   xmlns:sodipodi="http://sodipodi.sourceforge.net/DTD/sodipodi-0.dtd"
   xmlns:inkscape="http://www.inkscape.org/namespaces/inkscape"
   t="1625584255907"
   class="icon"
   viewBox="0 0 1024 1024"
   version="1.1"
   p-id="5383"
   width="200"
   height="200"
   id="svg915"
   sodipodi:docname="food.svg"
   inkscape:version="0.92.4 (5da689c313, 2019-01-14)">
  <metadata
     id="metadata919">
    <rdf:RDF>
      <cc:Work
         rdf:about="">
        <dc:format>image/svg+xml</dc:format>
        <dc:type
           rdf:resource="http://purl.org/dc/dcmitype/StillImage" />
        <dc:title></dc:title>
      </cc:Work>
    </rdf:RDF>
  </metadata>
  <sodipodi:namedview
     pagecolor="#ffffff"
     bordercolor="#666666"
     borderopacity="1"
     objecttolerance="10"
     gridtolerance="10"
     guidetolerance="10"
     inkscape:pageopacity="0"
     inkscape:pageshadow="2"
     inkscape:window-width="1280"
     inkscape:window-height="692"
     id="namedview917"
     showgrid="false"
     inkscape:zoom="2.435"
     inkscape:cx="100.41068"
     inkscape:cy="100"
     inkscape:window-x="0"
     inkscape:window-y="0"
     inkscape:window-maximized="1"
     inkscape:current-layer="svg915" />
  <defs
     id="defs901">
    <style
       type="text/css"
       id="style899" />
  </defs>
  <path
     d="M208.3 887.9c-31 0-56.1-25.2-56.1-56.1v-1.5c0-31 25.2-56.1 56.1-56.1h609.4c31 0 56.1 25.2 56.1 56.1v1.5c0 31-25.2 56.1-56.1 56.1H208.3z"
     fill="#FFE57A"
     p-id="5384"
     id="path903"
     style="fill:#fff8e1;fill-opacity:1" />
  <path
     d="M817.8 794.1c20 0 36.1 16.2 36.1 36.1v1.5c0 20-16.2 36.1-36.1 36.1H208.3c-20 0-36.1-16.2-36.1-36.1v-1.5c0-20 16.2-36.1 36.1-36.1h609.5m0-40H208.3c-42 0-76.1 34.2-76.1 76.1v1.5c0 42 34.2 76.1 76.1 76.1h609.4c42 0 76.1-34.2 76.1-76.1v-1.5c0.1-41.9-34.1-76.1-76-76.1z"
     fill="#200000"
     p-id="5385"
     id="path905"
     style="fill:#6d4c41;fill-opacity:1" />
  <path
     d="M510.5 344.6c-35.6 0-64.6-29-64.6-64.6v-79.3c0-35.6 29-64.6 64.6-64.6h1.9c35.6 0 64.6 29 64.6 64.6V280c0 35.6-29 64.6-64.6 64.6h-1.9z"
     fill="#FFE8A9"
     p-id="5386"
     id="path907"
     style="fill:#fff8e1;fill-opacity:1" />
  <path
     d="M512.4 156.1c24.6 0 44.6 20 44.6 44.6V280c0 24.6-20 44.6-44.6 44.6h-1.9c-24.6 0-44.6-20-44.6-44.6v-79.3c0-24.6 20-44.6 44.6-44.6h1.9m0-40h-1.9c-46.7 0-84.6 38-84.6 84.6V280c0 46.7 38 84.6 84.6 84.6h1.9c46.7 0 84.6-38 84.6-84.6v-79.3c0-46.6-38-84.6-84.6-84.6z"
     fill="#200000"
     p-id="5387"
     id="path909"
     style="fill:#6d4c41;fill-opacity:1" />
  <path
     d="M177 697.8c-9.5 0-17.7-6.7-19.6-16-4.9-23.8-7.3-48.2-7.3-72.7 0-48.8 9.6-96.1 28.4-140.7 18.2-43 44.3-81.7 77.4-114.9s71.8-59.2 114.9-77.4c44.6-18.8 91.9-28.4 140.7-28.4 48.8 0 96.1 9.6 140.7 28.4 43 18.2 81.7 44.3 114.9 77.4s59.2 71.8 77.4 114.9c18.8 44.6 28.4 91.9 28.4 140.7 0 24.5-2.5 48.9-7.3 72.7-1.9 9.3-10.1 16-19.6 16H177z"
     fill="#FFE57A"
     p-id="5388"
     id="path911"
     style="fill:#ffe082;fill-opacity:1" />
  <path
     d="M511.4 267.8c188.5 0 341.3 152.8 341.3 341.3 0 23.5-2.4 46.5-6.9 68.7H177c-4.5-22.2-6.9-45.2-6.9-68.7 0-188.5 152.8-341.3 341.3-341.3m0-40c-51.5 0-101.4 10.1-148.4 30-45.4 19.2-86.2 46.7-121.2 81.7s-62.5 75.8-81.7 121.2c-19.9 47-30 97-30 148.4 0 25.8 2.6 51.6 7.7 76.7 3.8 18.6 20.2 32 39.2 32h668.9c19 0 35.4-13.4 39.2-32 5.1-25.1 7.7-50.9 7.7-76.7 0-51.5-10.1-101.4-30-148.4-19.2-45.4-46.7-86.2-81.7-121.2s-75.8-62.5-121.2-81.7c-47-19.9-97-30-148.5-30z"
     fill="#200000"
     p-id="5389"
     id="path913"
     style="fill:#6d4c41;fill-opacity:1" />
</svg>
