<?xml version="1.0" standalone="no"?><!DOCTYPE svg PUBLIC "-//W3C//DTD SVG 1.1//EN" "http://www.w3.org/Graphics/SVG/1.1/DTD/svg11.dtd"><svg t="1626175299245" class="icon" viewBox="0 0 1024 1024" version="1.1" xmlns="http://www.w3.org/2000/svg" p-id="3232" xmlns:xlink="http://www.w3.org/1999/xlink" width="200" height="200"><defs><style type="text/css"></style></defs><path d="M916.442135 833.036178L706.238657 460.728363c-32.543674-57.514291-49.736558-122.601639-49.736558-188.712373V127.923246c0-70.613632-57.309614-127.923246-127.923246-127.923246h-47.894464c-70.613632 0-127.923246 57.309614-127.923246 127.923246v147.981611c0 63.654607-15.964821 126.490506-46.257045 182.36738L167.323606 716.370178l-4.298221 7.98241-59.970418 110.935039c-46.052369 85.145713 15.760144 188.712373 112.572457 188.712373h589.470317c98.040376-0.204677 159.648211-105.613432 111.344394-190.963822z m-665.405557-137.133719l111.958425-207.13332c35.204477-65.087348 53.830102-138.771137 53.830102-212.659605V127.923246c0-35.409155 28.654807-63.859284 63.859284-63.859284h47.894464c35.204477 0 63.859284 28.654807 63.859284 63.859284v144.092744c0 76.958625 20.058365 153.098541 57.923646 220.027984l84.941035 150.23306c1.842095 3.479512-1.637418 7.368379-5.321607 5.526284-3.070158-1.637418-6.140316-3.070158-9.210473-4.298221-39.912053-18.21627-79.210074-24.970618-116.666001-19.853688-41.54947 5.730961-69.180891 24.561263-95.993604 42.368179-20.263042 13.508695-41.140116 27.631421-71.022986 39.298021-51.988007 20.263042-110.730362 24.76594-174.794323 13.508695-10.643214-1.43274-16.374175-13.304018-11.257246-22.923845z m0 0" fill="#42a5f5" p-id="3233"></path></svg>