<?xml version="1.0" standalone="no"?><!DOCTYPE svg PUBLIC "-//W3C//DTD SVG 1.1//EN" "http://www.w3.org/Graphics/SVG/1.1/DTD/svg11.dtd"><svg t="1626176592931" class="icon" viewBox="0 0 1028 1024" version="1.1" xmlns="http://www.w3.org/2000/svg" p-id="12401" xmlns:xlink="http://www.w3.org/1999/xlink" width="200.78125" height="200"><defs><style type="text/css"></style></defs><path d="M538.76 563.883c-64.99 0-117.418 52.975-117.418 117.964 0 64.99 52.429 117.965 117.419 117.965s117.418-52.975 117.418-117.965c0-64.99-52.429-117.964-117.418-117.964z m0 203.707c-46.967 0-85.742-38.775-85.742-85.743 0-47.513 38.229-85.742 85.743-85.742 46.967 0 85.742 38.775 85.742 85.742s-38.229 85.743-85.742 85.743z m-64.443-408.507c0-64.99-51.883-117.965-116.873-117.965-64.99 0-117.418 52.975-117.418 117.965s52.428 117.964 117.418 117.964c64.444 0 116.873-52.974 116.873-117.964z m-202.616 0c0-47.514 38.23-85.743 85.743-85.743 46.968 0 85.197 38.23 85.197 85.743s-37.683 85.743-85.197 85.743-85.743-38.23-85.743-85.743z" p-id="12402" fill="#795548"></path><path d="M407.142 359.083c0-27.307-22.391-49.698-49.698-49.698s-49.698 22.391-49.698 49.698 22.392 49.698 49.698 49.698 49.152-22.392 49.698-49.698z m-67.72 0c0-9.83 8.192-18.023 18.022-18.023 9.83 0 18.023 8.192 18.023 18.023 0 9.83-8.192 18.022-18.023 18.022-9.83 0-18.022-8.192-18.022-18.022zM179.405 563.337c-64.99 0-117.419 52.974-117.419 117.964s52.429 117.965 117.419 117.965 117.418-52.429 117.418-117.965c0-64.99-52.428-117.964-117.418-117.964z m0 203.707c-47.514 0-85.743-38.23-85.743-85.743 0-46.967 38.775-85.743 85.743-85.743 47.513 0 85.743 38.776 85.743 85.743s-38.776 85.743-85.743 85.743z" p-id="12403" fill="#795548"></path><path d="M179.405 632.15c-27.307 0-49.698 22.39-49.698 49.697s22.391 49.699 49.698 49.699 49.698-22.392 49.698-49.699-22.392-49.698-49.698-49.698z m0 67.72c-9.83 0-18.023-8.192-18.023-18.023 0-9.83 8.192-18.022 18.023-18.022 9.83 0 18.022 8.192 18.022 18.022 0 9.83-8.192 18.023-18.022 18.023z" p-id="12404" fill="#795548"></path><path d="M984.405 560.06c-28.399-32.768-68.266-51.883-111.957-55.16-1.092 0-2.185-0.546-3.277-0.546h-89.566c45.876-32.222 75.367-85.197 75.367-145.271 0-93.39-72.09-170.394-164.386-176.948-1.093 0-2.185-0.546-3.277-0.546H357.444c-97.211 0-176.4 79.736-176.4 177.494 0 60.074 30.037 113.05 75.912 145.271h-77.551c-97.212 0-176.401 79.736-176.401 177.493s79.19 177.494 176.4 177.494h689.221c1.092 0 2.185 0 3.277-0.546 43.69-2.731 83.558-22.392 111.957-55.16 28.4-32.222 44.237-75.366 44.237-121.788s-15.838-89.565-43.69-121.787zM212.72 359.083c0-80.282 64.444-145.272 144.725-145.272 79.736 0 144.726 64.99 144.726 145.272s-64.444 145.271-144.726 145.271-144.725-64.99-144.725-145.271zM34.679 681.847c0-80.281 64.99-145.271 144.726-145.271 80.281 0 144.725 64.99 144.725 145.271S259.14 827.12 179.405 827.12 34.679 762.129 34.679 681.847z m359.356 0c0-80.281 64.99-145.271 144.726-145.271s144.725 64.99 144.725 145.271S618.496 827.12 538.76 827.12s-144.726-65.536-144.726-145.272z" p-id="12405" fill="#795548"></path><path d="M538.76 631.603c-27.306 0-49.698 22.392-49.698 49.698S511.454 731 538.761 731s49.698-22.391 49.698-49.698-21.846-49.698-49.698-49.698z m0 68.267c-9.83 0-18.022-8.192-18.022-18.023s8.192-18.022 18.023-18.022c9.83 0 18.022 8.192 18.022 18.022s-8.192 18.023-18.022 18.023z m371.917-123.426H827.12c-8.738 0-15.838 7.1-15.838 15.838s7.1 15.837 15.838 15.837h83.558c8.738 0 15.838-7.1 15.838-15.837 0-8.739-7.1-15.838-15.838-15.838z" p-id="12406" fill="#795548"></path></svg>