<?xml version="1.0" standalone="no"?><!DOCTYPE svg PUBLIC "-//W3C//DTD SVG 1.1//EN" "http://www.w3.org/Graphics/SVG/1.1/DTD/svg11.dtd"><svg t="1625585708359" class="icon" viewBox="0 0 1059 1024" version="1.1" xmlns="http://www.w3.org/2000/svg" p-id="2818" xmlns:xlink="http://www.w3.org/1999/xlink" width="206.8359375" height="200"><defs><style type="text/css"></style></defs><path d="M919.760479 803.257485 919.760479 803.257485c0-6.131737-2.043912-12.263473-4.087824-16.351297l-100.151697-510.978044-8.175649-6.131737c-2.043912 0-32.702595-22.483034-87.888224-22.483034-30.658683 0-51.097804 10.219561-61.317365 14.307385l-18.39521-112.41517c0 0 0-2.043912 0-2.043912 0-47.00998-49.053892-83.800399-112.41517-83.800399S416.958084 102.195609 416.958084 149.205589c0 0 0 2.043912 0 2.043912L400.606786 265.708583c-8.175649-4.087824-30.658683-14.307385-61.317365-16.351297-53.141717-2.043912-83.800399 20.439122-87.888224 22.483034l-8.175649 6.131737L143.073852 786.906188c-2.043912 6.131737-2.043912 12.263473-4.087824 16.351297 0 6.131737-2.043912 10.219561-2.043912 16.351297 0 2.043912 0 2.043912 0 4.087824 2.043912 53.141717 40.878244 100.151697 102.195609 122.634731 20.439122 8.175649 44.966068 12.263473 67.449102 12.263473 18.39521 0 36.790419-2.043912 53.141717-6.131737 59.273453-16.351297 102.195609-57.229541 114.459082-106.283433 18.39521 4.087824 36.790419 6.131737 57.229541 6.131737 18.39521 0 36.790419-2.043912 55.185629-6.131737 10.219561 51.097804 53.141717 91.976048 114.459082 106.283433 16.351297 4.087824 34.746507 6.131737 53.141717 6.131737 24.526946 0 47.00998-4.087824 67.449102-12.263473 59.273453-20.439122 100.151697-69.493014 102.195609-122.634731l0-4.087824C921.804391 815.520958 921.804391 809.389222 919.760479 803.257485zM713.325349 899.321357c-22.483034-6.131737-42.922156-18.39521-57.229541-32.702595-10.219561-12.263473-16.351297-24.526946-18.39521-36.790419l0-4.087824c38.834331-20.439122 67.449102-51.097804 81.756487-85.844311l8.175649-2.043912c32.702595-6.131737 65.40519 0 91.976048 12.263473 24.526946 12.263473 40.878244 30.658683 47.00998 49.053892l4.087824 14.307385c0 2.043912 0 4.087824 0 6.131737l0 2.043912c0 14.307385-6.131737 28.61477-18.39521 42.922156-12.263473 14.307385-28.61477 24.526946-49.053892 32.702595C774.642715 905.453094 741.94012 907.497006 713.325349 899.321357zM192.127745 817.56487l2.043912-14.307385c6.131737-20.439122 22.483034-38.834331 47.00998-51.097804 26.570858-14.307385 61.317365-18.39521 94.01996-12.263473l8.175649 2.043912c14.307385 34.746507 42.922156 65.40519 79.712575 85.844311l0 4.087824c-2.043912 14.307385-8.175649 26.570858-18.39521 36.790419-14.307385 14.307385-34.746507 26.570858-57.229541 32.702595-28.61477 8.175649-61.317365 6.131737-89.932136-4.087824-20.439122-6.131737-36.790419-18.39521-49.053892-32.702595-10.219561-12.263473-16.351297-26.570858-18.39521-42.922156l0-2.043912C190.083832 819.608782 192.127745 817.56487 192.127745 817.56487zM588.646707 153.293413c-2.043912 6.131737-8.175649 12.263473-12.263473 14.307385-24.526946 16.351297-71.536926 16.351297-94.01996 0-6.131737-4.087824-10.219561-8.175649-12.263473-14.307385L472.143713 143.073852c2.043912-4.087824 8.175649-8.175649 10.219561-10.219561 24.526946-16.351297 71.536926-16.351297 94.01996 0 2.043912 2.043912 8.175649 6.131737 10.219561 10.219561L588.646707 153.293413zM598.866267 216.654691l55.185629 351.552894c-10.219561-8.175649-22.483034-14.307385-34.746507-18.39521C592.734531 537.548902 562.075848 531.417166 531.417166 531.417166c-36.790419 0-73.580838 8.175649-106.283433 24.526946-6.131737 4.087824-12.263473 6.131737-18.39521 10.219561l55.185629-351.552894C500.758483 239.137725 560.031936 239.137725 598.866267 216.654691zM439.441118 772.598802c-12.263473-6.131737-20.439122-16.351297-28.61477-24.526946-4.087824-4.087824-8.175649-10.219561-10.219561-14.307385-4.087824-8.175649-8.175649-16.351297-10.219561-26.570858 0-4.087824-2.043912-8.175649-2.043912-12.263473l0-2.043912c0-2.043912 0-4.087824 0-6.131737L388.343313 674.491018c6.131737-28.61477 28.61477-53.141717 59.273453-69.493014 44.966068-22.483034 104.239521-24.526946 151.249501-6.131737 38.834331 16.351297 65.40519 44.966068 71.536926 75.62475l2.043912 8.175649c0 2.043912 0 6.131737 0 10.219561 0 4.087824 0 10.219561-2.043912 14.307385-2.043912 8.175649-4.087824 16.351297-10.219561 24.526946-4.087824 6.131737-8.175649 12.263473-14.307385 18.39521-8.175649 8.175649-16.351297 16.351297-28.61477 22.483034-8.175649 4.087824-16.351297 8.175649-26.570858 12.263473l0 0c-6.131737 2.043912-10.219561 4.087824-16.351297 6.131737-34.746507 10.219561-75.62475 8.175649-108.327345-4.087824l-4.087824-2.043912C455.792415 782.818363 447.616766 776.686627 439.441118 772.598802zM672.447106 320.894212l12.263473-8.175649c0 0 14.307385-8.175649 36.790419-8.175649 22.483034 0 36.790419 4.087824 47.00998 8.175649l77.668663 394.47505c-2.043912 0-2.043912-2.043912-4.087824-2.043912-34.746507-18.39521-75.62475-24.526946-116.502994-20.439122 0-4.087824 0-10.219561-2.043912-14.307385l-57.229541-355.640719L672.447106 320.894212zM337.245509 662.227545c0 4.087824-2.043912 6.131737-2.043912 10.219561 0 4.087824 0 8.175649 0 12.263473-40.878244-6.131737-83.800399 2.043912-118.546906 20.439122-2.043912 0-2.043912 2.043912-4.087824 2.043912l77.668663-394.47505c10.219561-4.087824 24.526946-10.219561 47.00998-8.175649 22.483034 0 36.790419 8.175649 36.790419 8.175649 0 0 0 0 0 0l12.263473 10.219561 6.131737-10.219561L337.245509 662.227545z" p-id="2819" fill="#6b5550"></path></svg>